<svg xmlns="http://www.w3.org/2000/svg" viewBox="0 0 1255.44 221"><g id="图层_2" data-name="图层 2"><g id="图层_1-2" data-name="图层 1"><path d="M153.82,142.35s3.85-5.42-3.73-10.81c-12.31-8.75-16.16-3.33-16.16-3.33L92.17,187s-10.28,14.46-21.65,6.38-1.09-22.54-1.09-22.54l41.76-58.75s3.86-5.42-2.77-10.13l-6.64-4.72c-6.63-4.71-10.48.71-10.48.71L49.54,156.66s-10.28,14.46-20.7,7.05c-11.37-8.08-.14-21.86-.14-21.86L70.46,83.1S74.31,77.68,62,68.92c-6.63-4.71-10.49.71-10.49.71L9.75,128.38s-24.41,34.34,4,54.54c11.37,8.08,28.85,5.55,28.85,5.55S45,205.14,57.33,213.9c30.31,21.55,54.73-12.8,54.73-12.8Z" style="fill:#2bcc6f"/><path d="M140,142.35s-3.85-5.42,3.72-10.81c12.32-8.75,16.17-3.33,16.17-3.33L201.63,187s10.28,14.46,21.65,6.38,1.09-22.54,1.09-22.54l-41.76-58.75s-3.86-5.42,2.77-10.13L192,97.2c6.63-4.71,10.49.71,10.49.71l41.76,58.75s10.28,14.46,20.7,7.05c11.37-8.08.14-21.86.14-21.86L223.34,83.1s-3.86-5.42,8.46-14.18c6.63-4.71,10.48.71,10.48.71L284,128.38s24.42,34.34-4,54.54c-11.37,8.08-28.85,5.55-28.85,5.55s-2.41,16.67-14.72,25.43c-30.32,21.55-54.73-12.8-54.73-12.8Z" style="fill:#2882ff"/><path d="M166.44,50c-10.33,17.52-7.58,43.39-7.07,46.06,0,.16.1,1.3.24,2.82.08,1,.33,3.65-1.3,5.43-1.1,1.19-3,1.76-6.38,1.67-10.93-.29-15.13.3-16.67-1.39-2.71-3-1.37-7.8-.61-13.19C137,74.69,131.87,59,127.44,51c-7.78-14-18-12.36-19-21C107,17.68,126.14.2,146.44,0c20.81-.21,40.55,17.66,39,30C184.39,38.37,174.55,36.25,166.44,50Z" style="fill:#f73"/><path d="M431.19,57.78c3.17,2.69,4.06,3.66,2.31,7.38-6.9,14.63-6.7,14.61-20.54,7.55-12.76-6.52-26.17-10.48-40.8-9.73-3.94.2-7.83.68-11.11,2.49-4.07,2.24-8.22,5.09-8.27,10.47s2.78,9.28,7.61,11.84c7.5,4,15.64,4.91,24,4.92,11.63,0,22.87,1.86,33.47,6.74,23.88,11,26.3,40.23,5,57.18C406,170,386.31,171.73,365.81,167a160.16,160.16,0,0,1-34.88-12.4c-5.27-2.58-7.48-4.8-3.73-10.25,2.47-3.58,3.21-9.06,6.44-11.18,4.16-2.74,7.36,3.16,11.36,4.6,13.91,5,27.85,9.55,42.93,9,2.06-.07,20.28.41,21.48-12.82,0-8.85-6.32-12.67-13.2-15.32-12.17-4.68-25.48-4-38.09-6.75-13.95-3-25.88-8.65-30.17-23.47-5-17.36,3.3-36.8,21.64-42.6C352.42,44.91,402.4,33.29,431.19,57.78Z" style="fill:#333"/><path d="M888.19,82.1c0,31.38-29.05,32.54-50.83,33.33-7.1.25-21.85-1.28-25-4.46-9-9.11-3.2-27.71,4.94-24.22,13,9.61,41.84,5.81,41.84-8.14,0-10.46-6.3-13.08-15.81-13.52-15.06-.7-30.18-.22-45.28-.21-6.31,0-4.81,4.72-4.82,8.18-.09,27.31-.41,54.63.16,81.93.17,8.63-1.82,11.7-11.16,11.21-15.54-.82-15.57-.21-15.57-15.34,0-31.68.23-63.35-.17-95-.09-7.7,1.61-10.61,10.16-10.37,21.89.63,43.81.21,65.72.21C866.57,45.68,888.19,49.56,888.19,82.1Z" style="fill:#333"/><path d="M1049.52,51s-.13-6.64-10.69-6.44c-17.16.32-17,7-17,7l1.48,71.9s.36,17.7-15.48,18S991.6,124,991.6,124l-1.48-71.9s-.13-6.64-9.37-6.47l-9.24.18c-9.24.17-9.11,6.8-9.11,6.8l1.48,71.91s.36,17.7-14.16,18c-15.84.29-14.88-17.43-14.88-17.43l-1.48-71.9s-.13-6.64-17.29-6.32c-9.24.17-9.11,6.81-9.11,6.81l1.48,71.9c.83,15.62,3.4,38.79,27.85,42.65,2.29,0,17.07,0,19.31,0,12.86,0,23.41-14.09,23.41-14.09s8.76,14.09,22.91,14.09h21.88c9,0,28.31-12.87,27.2-45.31Z" style="fill:#333"/><path d="M1209.1,49.74s-.14-6.63-10.7-6.44c-17.16.32-17,7-17,7l1.47,71.9s.36,17.7-15.48,18-16.2-17.41-16.2-17.41l-1.47-71.9s-.14-6.64-9.38-6.46l-9.24.17c-9.24.17-9.1,6.81-9.1,6.81l1.47,71.9s.36,17.7-14.16,18c-15.84.29-14.88-17.43-14.88-17.43l-1.47-71.9s-.14-6.64-17.3-6.32c-9.24.17-9.1,6.81-9.1,6.81l1.47,71.9c.83,15.63,3.41,38.79,27.86,42.65,2.29,0,17.06,0,19.3,0,12.87,0,23.41-14.08,23.41-14.08S1147.34,167,1161.5,167h21.88c9,0,28.31-12.87,27.19-45.3Z" style="fill:#333"/><path d="M585.48,105.8c0,17.4-.19,34.8.11,52.2.11,5.83-1.4,8.28-7.86,8.09-20.74-.62-16.77,2.35-17.15-16.21-.17-8.41-.31-16.83.07-25.23.25-5.61-1.59-7.7-7.5-7.55-13.59.35-27.19-.14-40.77.22-5.83.15-5.36-1.56-4.55-6.49.33-2,2.65-16,15.43-16,8.57,0,22.19-.59,30.75-.33,5,.15,6.72-1.78,6.62-6.62-.25-11.59.16-23.2-.18-34.79-.16-5.57,1.52-7.72,7.47-7.56,21.36.56,17.2-2.45,17.52,16.72C585.68,76.8,585.48,91.3,585.48,105.8Z" style="fill:#333"/><path d="M1255.33,104.46c0,17.48-.18,35,.11,52.42.09,5.64-1.07,8.49-8.21,8.28-22.54-.66-18.31,2.53-18.47-17-.26-31.74.16-63.49-.25-95.23-.09-7.07,2.35-8.88,9.7-8.74,17.12.31,17.12,0,17.12,15.72Z" style="fill:#333"/><path d="M464.53,105.44c0-17.12.25-34.25-.14-51.36-.14-6.3,1.48-8.77,8.36-8.53,20,.67,16.53-2.31,16.65,15.83.21,31.63-.17,63.26.23,94.89.09,7.41-1.53,10.26-9.7,9.88-18-.85-15.19,2.09-15.37-15.44C464.4,135.62,464.53,120.53,464.53,105.44Z" style="fill:#333"/><path d="M722.7,58.09c-18.77-13.65-39.35-18.23-62.56-14.46-32.37,5.25-55.14,30.31-55.25,67.73.77,13.81,7.52,30.15,23.48,42,16.49,12.25,35,16.38,55.58,14.56,26.75-2.38,46-14.26,57.15-38.74C752,105.37,744.07,73.64,722.7,58.09Zm-3.81,47.47c-.95,24-17,39.54-43,39.56-26.12,0-44.44-16.27-44.35-39.43.09-23,18.64-41.08,42.62-40.71S719.85,81.68,718.89,105.56Z" style="fill:#333"/></g></g></svg>